<svg xmlns="http://www.w3.org/2000/svg" viewBox="0 0 16 16"><defs><style>.a,.b{fill-opacity: 0;}.a{fill-opacity:0;}.c{fill:#424242;}</style></defs><title>EffectBlueprint</title><path class="a" d="M16,16H0V0H16Z" transform="translate(0 0)"/><path class="b" d="M3,16a2,2,0,0,1-2-2V2A2,2,0,0,1,3,0h8.06L15,3.56V14a2,2,0,0,1-2,2Z" transform="translate(0 0)"/><path class="c" d="M7.19,5a5,5,0,0,0-.41,1.63A5,5,0,0,0,6.37,5c-.19-.21-1.12-.33-1.12-.33A3.14,3.14,0,0,0,6.4,4.37a4.75,4.75,0,0,0,.38-1.61,4.75,4.75,0,0,0,.38,1.61,3.14,3.14,0,0,0,1.15.34S7.39,4.83,7.19,5Z" transform="translate(0 0)"/><path class="c" d="M5.82,9.4a5.16,5.16,0,0,0-.32,1.47A5.16,5.16,0,0,0,5.18,9.4c-.15-.19-.86-.3-.86-.3S5.05,9,5.2,8.8a4.93,4.93,0,0,0,.3-1.46,4.93,4.93,0,0,0,.3,1.46c.15.19.89.31.89.31S6,9.21,5.82,9.4Z" transform="translate(0 0)"/><path class="c" d="M9.2,11.57a5.33,5.33,0,0,0-.43,1.71,5.33,5.33,0,0,0-.43-1.71c-.2-.22-1.15-.35-1.15-.35s1-.14,1.19-.36a5.08,5.08,0,0,0,.4-1.7,5.08,5.08,0,0,0,.4,1.7c.2.23,1.19.36,1.19.36S9.4,11.35,9.2,11.57Z" transform="translate(0 0)"/><path class="c" d="M10.58,8.17a5.56,5.56,0,0,0-.36,1.63,5.56,5.56,0,0,0-.36-1.63c-.17-.21-1-.33-1-.33s.84-.13,1-.34a5.3,5.3,0,0,0,.34-1.61,5.3,5.3,0,0,0,.34,1.61c.17.21,1,.34,1,.34S10.75,8,10.58,8.17Z" transform="translate(0 0)"/><path class="c" d="M10.64,1H3A1,1,0,0,0,2,2V14a1,1,0,0,0,1,1H13l1-1V4ZM13,14H3V2h7V5h3Z" transform="translate(0 0)"/></svg>