<svg id="Layer_1" data-name="Layer 1" xmlns="http://www.w3.org/2000/svg" viewBox="0 0 16 16"><defs><style>.cls-1,.cls-2{fill:#f6f6f6;}.cls-1{fill-opacity:0;}.cls-2{opacity:0;}.cls-3{fill:#424242;}</style></defs><title>LogicPrefabBlueprint</title><path class="cls-1" d="M16,16H0V0H16Z" transform="translate(0 0)"/><path class="cls-2" d="M3,16a2,2,0,0,1-2-2V2A2,2,0,0,1,3,0h8.06L15,3.56V14a2,2,0,0,1-2,2Z" transform="translate(0 0)"/><path class="cls-3" d="M11,0H2.29A1.14,1.14,0,0,0,1.14,1.14V14.86A1.14,1.14,0,0,0,2.29,16H13.71l1.15-1.14V3.43Zm2.69,14.86H2.29V1.14h8V4.57h3.42Z" transform="translate(0 0)"/><path class="cls-3" d="M12.32,9.94H10.83L8.91,6.86h2l.72-.77v-1h-.72v1H5.2V3.85H9.71V3H5.2l-.72.77V6.09l.67.77H7.09L5.17,9.94H3.68L3,10.71V13l.72.77H6.56L7.28,13V10.71l-.72-.77H6L8,6.86l2,3.08H9.44l-.72.77V13l.72.77h2.88L13,13V10.71Zm-5.71.77V13H3.68V10.71ZM9.44,13V10.71h2.88L12.38,13Z" transform="translate(0 0)"/></svg>