<svg xmlns="http://www.w3.org/2000/svg" viewBox="0 0 16 16"><defs><style>.a,.b{fill-opacity: 0;}.a{fill:#fff;}.c{fill:#424242;}</style></defs><title>ObjectBlueprint</title><path class="a" d="M16,16H0V0H16Z" transform="translate(0 0)"/><path class="b" d="M3,16a2,2,0,0,1-2-2V2A2,2,0,0,1,3,0h8.06L15,3.56V14a2,2,0,0,1-2,2Z" transform="translate(0 0)"/><rect class="b" x="9.5" y="1.97" width="1" height="3.4"/><rect class="b" x="9.5" y="4.5" width="3.56" height="1"/><path class="c" d="M10.64,1H3A1,1,0,0,0,2,2V14a1,1,0,0,0,1,1H13l1-1V4ZM13,14H3V2h7V5h3Z" transform="translate(0 0)"/><rect class="c" x="4.23" y="3.85" width="2.88" height="1"/><rect class="c" x="5.23" y="5.77" width="5.98" height="1"/><rect class="c" x="5.23" y="7.27" width="4.33" height="1"/><rect class="c" x="5.25" y="10.27" width="4.81" height="1"/><rect class="c" x="5.25" y="8.77" width="5.4" height="1"/><rect class="c" x="4.23" y="11.77" width="1.77" height="1"/></svg>