<svg id="Layer_1" data-name="Layer 1" xmlns="http://www.w3.org/2000/svg" viewBox="0 0 16 16"><defs><style>.cls-1,.cls-2{fill:#f6f6f6;}.cls-1{fill-opacity:0;}.cls-2,.cls-4{opacity:0;}.cls-3{fill:#424242;}.cls-4{fill:#f0eff1;}</style></defs><title>PrefabBlueprint</title><path class="cls-1" d="M0,0H16V16H0Z" transform="translate(0 0)"/><path class="cls-2" d="M11.06,0H5A2,2,0,0,0,3,2,2,2,0,0,0,1,4V14a2,2,0,0,0,2,2h8a2,2,0,0,0,2-2,2,2,0,0,0,2-2V3.56Z" transform="translate(0 0)"/><path class="cls-3" d="M11,0H4.57A1.14,1.14,0,0,0,3.43,1.14h6.86v1L13,4.57h.69v9.14a1.14,1.14,0,0,0,1.15-1.14V3.43Z" transform="translate(0 0)"/><path class="cls-3" d="M8.73,2.29H2.29A1.14,1.14,0,0,0,1.14,3.43V14.86A1.14,1.14,0,0,0,2.29,16h9.14a1.14,1.14,0,0,0,1.14-1.14V5.71Zm2.7,12.57H2.29V3.43H8V6.86h3.43Z" transform="translate(0 0)"/><path class="cls-4" d="M3,4H8V7h3v7H3Z" transform="translate(0 0)"/><rect class="cls-3" x="3.43" y="5.61" width="2.74" height="0.95"/><rect class="cls-3" x="4.38" y="7.44" width="5.7" height="0.95"/><rect class="cls-3" x="4.38" y="8.87" width="4.14" height="0.95"/><rect class="cls-3" x="4.4" y="11.73" width="4.59" height="0.95"/><rect class="cls-3" x="4.4" y="10.3" width="5.14" height="0.95"/><rect class="cls-3" x="3.43" y="13.15" width="1.69" height="0.95"/></svg>