<svg xmlns="http://www.w3.org/2000/svg" viewBox="0 0 16 16"><defs><style>.a,.b{fill-opacity:0;}.a{fill-opacity:0;}.c{fill:#424242;}.d{fill-opacity:0;}</style></defs><title>PrefabBlueprint</title><path class="a" d="M0,0H16V16H0Z" transform="translate(0 0)"/><path class="b" d="M11.06,0H5A2,2,0,0,0,3,2,2,2,0,0,0,1,4V14a2,2,0,0,0,2,2h8a2,2,0,0,0,2-2,2,2,0,0,0,2-2V3.56Z" transform="translate(0 0)"/><path class="c" d="M10.64,1H5A1,1,0,0,0,4,2h6v.85L12.39,5H13v8a1,1,0,0,0,1-1V4Z" transform="translate(0 0)"/><path class="c" d="M8.64,3H3A1,1,0,0,0,2,4V14a1,1,0,0,0,1,1h8a1,1,0,0,0,1-1V6ZM11,14H3V4H8V7h3Z" transform="translate(0 0)"/><path class="d" d="M3,4H8V7h3v7H3Z" transform="translate(0 0)"/><rect class="c" x="4" y="5.91" width="2.4" height="0.83"/><rect class="c" x="4.83" y="7.51" width="4.99" height="0.83"/><rect class="c" x="4.83" y="8.76" width="3.62" height="0.83"/><rect class="c" x="4.85" y="11.26" width="4.02" height="0.83"/><rect class="c" x="4.85" y="10.01" width="4.5" height="0.83"/><rect class="c" x="4" y="12.51" width="1.48" height="0.83"/></svg>