<?xml version="1.0" encoding="utf-8"?>
<!-- Generator: Adobe Illustrator 19.0.0, SVG Export Plug-In . SVG Version: 6.00 Build 0)  -->
<svg version="1.1" id="Layer_1" xmlns="http://www.w3.org/2000/svg" xmlns:xlink="http://www.w3.org/1999/xlink" x="0px" y="0px"
	 viewBox="-391 193 16 16" style="enable-background:new -391 193 16 16;" xml:space="preserve">
<style type="text/css">
	.st0{fill:#424242;}
</style>
<title>PrefabBlueprint</title>
<path class="st0" d="M-380,193h-6.4c-0.6,0-1.6,0.4-1.6,1l0,0h7v1l3,3h1v9c0.6,0,1-0.4,1-1c0,0,0,0,0,0v-9L-380,193z"/>
<path class="st0" d="M-382,195h-7c-0.6,0-1,0.4-1,1c0,0,0,0,0,0v12c0,0.6,0.7,1,1.3,1c0,0,0,0,0,0h9.6c0.6,0,1.1-0.4,1.1-1
	c0,0,0,0,0,0v-9L-382,195z M-379,208h-10v-12h6v4h4V208z"/>
<rect x="-388" y="198" class="st0" width="3" height="1"/>
<rect x="-387" y="200" class="st0" width="6" height="1"/>
<rect x="-387" y="202" class="st0" width="4" height="1"/>
<rect x="-387" y="204" class="st0" width="5" height="1"/>
<rect x="-388" y="206" class="st0" width="2" height="1"/>
</svg>
