<svg xmlns="http://www.w3.org/2000/svg" viewBox="0 0 16 16"><defs><style>.a,.b{fill-opacity: 0;}.a{fill-opacity:0;}.c{fill:#424242;}.d{fill-opacity:0;}</style></defs><title>SpatialPrefabBlueprint</title><path class="a" d="M0,0H16V16H0Z" transform="translate(0 0)"/><path class="b" d="M11.06,0H5A2,2,0,0,0,3,2,2,2,0,0,0,1,4V14a2,2,0,0,0,2,2h8a2,2,0,0,0,2-2,2,2,0,0,0,2-2V3.56Z" transform="translate(0 0)"/><path class="c" d="M10.64,1H5A1,1,0,0,0,4,2h6v.85L12.39,5H13v8a1,1,0,0,0,1-1V4Z" transform="translate(0 0)"/><path class="c" d="M8.64,3H3A1,1,0,0,0,2,4V14a1,1,0,0,0,1,1h8a1,1,0,0,0,1-1V6ZM11,14H3V4H8V7h3Z" transform="translate(0 0)"/><path class="d" d="M3,4H8V7h3v7H3Z" transform="translate(0 0)"/><path class="c" d="M10.25,11.76,9,13l-.34-.34L9.34,12H4.64V7.3L4,8l-.34-.34L4.88,6.39,6.11,7.62,5.78,8,5.12,7.3v3.89l2.1-2H6.15V8.72H7.91v1.76H7.49V9.43l-2,2.1H9.34l-.66-.66L9,10.53Z" transform="translate(0 0)"/></svg>