<svg id="Layer_1" data-name="Layer 1" xmlns="http://www.w3.org/2000/svg" viewBox="0 0 16 16.00009" shape-rendering="crispEdges"><defs><style>.cls-1{fill:#f6f6f6;fill-opacity:0;}.cls-2{fill:#424242;}</style></defs><title>EffectBlueprintDOS</title><path class="cls-1" d="M16,16H0V0H16Z" transform="translate(0 0.00004)"/><path class="cls-1" d="M3,16a2,2,0,0,1-2-2V2A2,2,0,0,1,3,0h8.06L15,3.56V14a2,2,0,0,1-2,2Z" transform="translate(0 0.00004)"/><path class="cls-2" d="M6.15934,6.14042A9.54792,9.54792,0,0,0,5.48626,9a9.55136,9.55136,0,0,0-.67307-2.90426A4.6942,4.6942,0,0,0,3,5.5s1.57967-.2383,1.86813-.61064A9.13327,9.13327,0,0,0,5.5,2a9.56461,9.56461,0,0,0,.63187,2.88936C6.4478,5.2766,8,5.5,8,5.5A4.79627,4.79627,0,0,0,6.15934,6.14042Z" transform="translate(0 0.00004)"/><path class="cls-2" d="M11.06122,0H2.17347A1.15231,1.15231,0,0,0,1,1.13l0,.01V14.86A1.15181,1.15181,0,0,0,2.16322,16l.01025,0H13.82653L15,14.86V3.43Zm2.7449,14.86H2.17347V1.14h8.16326V4.57h3.4898Z" transform="translate(0 0.00004)"/><path class="cls-2" d="M10.15934,11.14042A9.54792,9.54792,0,0,0,9.48626,14a9.55136,9.55136,0,0,0-.67307-2.90426A4.6942,4.6942,0,0,0,7,10.5s1.57967-.2383,1.86813-.61064A9.13327,9.13327,0,0,0,9.5,7a9.56461,9.56461,0,0,0,.63187,2.88936C10.4478,10.2766,12,10.5,12,10.5A4.79627,4.79627,0,0,0,10.15934,11.14042Z" transform="translate(0 0.00004)"/></svg>