<?xml version="1.0" encoding="utf-8"?>
<!-- Generator: Adobe Illustrator 19.0.0, SVG Export Plug-In . SVG Version: 6.00 Build 0)  -->
<svg version="1.1" xmlns="http://www.w3.org/2000/svg" xmlns:xlink="http://www.w3.org/1999/xlink" x="0px" y="0px"
	 viewBox="-391 193 16 16" style="enable-background:new -391 193 16 16;" xml:space="preserve">
<style type="text/css">
	.st0{display:none;}
	.st1{display:inline;fill:#424242;}
	.st2{display:inline;}
	.st3{fill:#424242;}
</style>
<g id="Layer_2_1_" class="st0">
	<path class="st1" d="M-391,193v16h16v-16H-391z M-376,204h-1v1h1v1h-1v1h1v1h-1v-1h-1v1h-1v-1h-1v1h-1v-1h-1v1h-1v-1h1v-1h-1v-1h1
		v-1h-1v-1h1v-1h-1v-1h-1v-1h-1v1h-1v-1h-1v1h-1v-1h-1v1h-1v-1h1v-1h-1v-1h1v-1h-1v-1h1v-1h-1v-1h1v1h1v-1h1v1h1v-1h1v1h1v-1h1v1h-1
		v1h1v1l-1,0v1h1v1h-1v1h1v1h1v1h1v-1h1v1h1v-1h1v1h1v-1h1v1h-1v1h1V204z"/>
	<g class="st2">
		<path class="st3" d="M-387,196 M-388,195h1v1h-1V195z"/>
	</g>
	<g class="st2">
		<path class="st3" d="M-385,196 M-386,195h1v1h-1V195z"/>
	</g>
	<g class="st2">
		<path class="st3" d="M-384,197 M-385,196h1v1h-1V196z"/>
	</g>
	<g class="st2">
		<path class="st3" d="M-386,197 M-387,196h1v1h-1V196z"/>
	</g>
	<g class="st2">
		<path class="st3" d="M-388,197 M-389,196h1v1h-1V196z"/>
	</g>
	<g class="st2">
		<path class="st3" d="M-385,198 M-386,197h1v1h-1V197z"/>
	</g>
	<g class="st2">
		<path class="st3" d="M-387,198 M-388,197h1v1h-1V197z"/>
	</g>
	<g class="st2">
		<path class="st3" d="M-386,199 M-387,198h1v1h-1V198z"/>
	</g>
	<g class="st2">
		<path class="st3" d="M-384,199 M-385,198h1v1h-1V198z"/>
	</g>
	<g class="st2">
		<path class="st3" d="M-385,200 M-386,199h1v1h-1V199z"/>
	</g>
	<g class="st2">
		<path class="st3" d="M-387,200 M-388,199h1v1h-1V199z"/>
	</g>
	<g class="st2">
		<path class="st3" d="M-388,199 M-389,198h1v1h-1V198z"/>
	</g>
	<g class="st2">
		<path class="st3" d="M-380,203 M-381,202h1v1h-1V202z"/>
	</g>
	<g class="st2">
		<path class="st3" d="M-378,203 M-379,202h1v1h-1V202z"/>
	</g>
	<g class="st2">
		<path class="st3" d="M-377,204 M-378,203h1v1h-1V203z"/>
	</g>
	<g class="st2">
		<path class="st3" d="M-379,204 M-380,203h1v1h-1V203z"/>
	</g>
	<g class="st2">
		<path class="st3" d="M-381,204 M-382,203h1v1h-1V203z"/>
	</g>
	<g class="st2">
		<path class="st3" d="M-381,206 M-382,205h1v1h-1V205z"/>
	</g>
	<g class="st2">
		<path class="st3" d="M-380,205 M-381,204h1v1h-1V204z"/>
	</g>
	<g class="st2">
		<path class="st3" d="M-378,205 M-379,204h1v1h-1V204z"/>
	</g>
	<g class="st2">
		<path class="st3" d="M-377,206 M-378,205h1v1h-1V205z"/>
	</g>
	<g class="st2">
		<path class="st3" d="M-379,206 M-380,205h1v1h-1V205z"/>
	</g>
	<g class="st2">
		<path class="st3" d="M-380,207 M-381,206h1v1h-1V206z"/>
	</g>
	<g class="st2">
		<path class="st3" d="M-378,207 M-379,206h1v1h-1V206z"/>
	</g>
</g>
<g id="Layer_3">
	<g id="icon_x5F_bg">
		<path class="st3" d="M-385,207l4,1v1l-4-1V207z M-385,204l4,1v1l-4-1V204z M-383,193c-2.8,0-5,2.1-5,4.6c0,1,0.3,1.9,0.9,2.6
			c0,0.1,2.1,2.8,2.1,2.8h1l0-3l-1-1v-3l1,1v1l1,1l1-1v-1l1-1v3l-1,1l0,1v1l0,1h1c0,0,2.1-2.7,2.1-2.8c0.5-0.7,0.9-1.6,0.9-2.6
			C-378,195.1-380.2,193-383,193z"/>
	</g>
</g>
</svg>
