<svg id="Layer_1" data-name="Layer 1" xmlns="http://www.w3.org/2000/svg" viewBox="0 0 16 16.00001"><defs><style>.cls-1{fill:#f6f6f6;}.cls-1,.cls-3{fill-opacity:0;}.cls-2{fill:#424242;}.cls-3{fill:#f0eff1;}</style></defs><title>SpatialPrefabBlueprintCINKO</title><path class="cls-1" d="M0,0H16V16H0Z" transform="translate(0 0.00001)"/><path class="cls-1" d="M11.06,0H5A2,2,0,0,0,3,2,2,2,0,0,0,1,4V14a2,2,0,0,0,2,2h8a2,2,0,0,0,2-2,2,2,0,0,0,2-2V3.56Z" transform="translate(0 0.00001)"/><path class="cls-2" d="M11.07591,0H4.50511a1.15268,1.15268,0,0,0-1.165,1.14h7.01022v1l2.76934,2.43h.70511v9.14A1.15321,1.15321,0,0,0,15,12.58l0-.01V3.43Z" transform="translate(0 0.00001)"/><path class="cls-2" d="M8.7562,2.29h-6.581A1.15323,1.15323,0,0,0,1,3.42l0,.01V14.86A1.15268,1.15268,0,0,0,2.16492,16l.01026,0h9.34015a1.15269,1.15269,0,0,0,1.165-1.14h0V5.71Zm2.75913,12.57H2.17518V3.43h5.835V6.86h3.50511Z" transform="translate(0 0.00001)"/><path class="cls-3" d="M3,4H8V7h3v7H3Z" transform="translate(0 0.00001)"/><path class="cls-2" d="M11,12.506,9.48877,14l-.41215-.40265.8243-.8053h-5.675V7.102l-.77146.84768L3,7.53642,4.51123,6,6.00132,7.494l-.40158.45563L4.80713,7.102v4.71523L7.34346,9.39073H6.05416V8.81854H8.16777v2.11921h-.4967V9.67682L5.251,12.18808H9.90093l-.79261-.7947.38045-.41325Z" transform="translate(0 0.00001)"/></svg>