<?xml version="1.0" encoding="utf-8"?>
<!-- Generator: Adobe Illustrator 19.0.0, SVG Export Plug-In . SVG Version: 6.00 Build 0)  -->
<svg version="1.1" id="Layer_1" xmlns="http://www.w3.org/2000/svg" xmlns:xlink="http://www.w3.org/1999/xlink" x="0px" y="0px"
	 viewBox="-391 193 16 16" style="enable-background:new -391 193 16 16;" xml:space="preserve">
<style type="text/css">
	.st0{fill:#434343;}
	.st1{display:none;}
	.st2{display:inline;fill:none;stroke:#434343;stroke-miterlimit:10;}
	.st3{fill:none;stroke:#424242;stroke-miterlimit:10;}
	.st4{fill:#424242;}
</style>
<g id="Layer_2">
	<title>ObjectBlueprintDOS</title>
	<path class="st0" d="M-379.9,193h-9c-0.6,0-1.1,0.4-1.1,1l0,0v14c0,0.6,0.4,1,1.1,1l0,0h11.9c0,0-0.1,0,0,0c0.5,0,1-0.5,1-1
		c0-0.1,0,0,0,0v-11L-379.9,193z M-376.9,208H-389v-14h8.1v4h4V208z"/>
</g>
<g id="Layer_3" class="st1">
	<path class="st2" d="M-378.8,204.8c0.5-0.4,0.9-1.1,0.9-1.9c0-1.4-1.1-2.5-2.5-2.5c-0.8,0-1.6,0.4-2,1"/>
</g>
<circle class="st3" cx="-383" cy="203" r="3"/>
<rect x="-384" y="198" class="st4" width="1" height="1"/>
<rect x="-380" y="199" class="st4" width="1" height="1"/>
<rect x="-387" y="199" class="st4" width="1" height="1"/>
<rect x="-380" y="206" class="st4" width="1" height="1"/>
<rect x="-387" y="206" class="st4" width="1" height="1"/>
<rect x="-379" y="202" class="st4" width="1" height="1"/>
<rect x="-388" y="203" class="st4" width="1" height="1"/>
<rect x="-383" y="207" class="st4" width="1" height="1"/>
</svg>
