
<?xml version="1.0" encoding="utf-8"?>
<!-- Generator: Adobe Illustrator 19.0.0, SVG Export Plug-In . SVG Version: 6.00 Build 0)  -->
<svg version="1.1" id="Layer_1" xmlns="http://www.w3.org/2000/svg" xmlns:xlink="http://www.w3.org/1999/xlink" x="0px" y="0px"
	 viewBox="-391 193 16 16" style="enable-background:new -391 193 16 16;" xml:space="preserve">
<style type="text/css">
	.st0{fill:#434343;}
	.st1{fill:#424242;}
	.st2{fill:none;stroke:#434343;stroke-miterlimit:10;}
</style>
<g id="Layer_2">
	<title>ObjectBlueprintDOS</title>
	<path class="st0" d="M-380,193h-9c-0.6,0-1.1,0.4-1.1,1l0,0v14c0,0.6,0.4,1,1.1,1l0,0h11.9c0,0-0.1,0,0,0c0.5,0,1-0.5,1-1
		c0-0.1,0,0,0,0v-11L-380,193z M-377,208h-12v-14h8v4h4V208z"/>
</g>
<g id="Layer_3">
	<path id="iconBg" class="st1" d="M-383.2,201.9c1.1,0,1.9,0.9,1.9,2v0.3h0.6c0.6,0,1.1,0.5,1.1,1.1s-0.5,1.1-1.1,1.1h-5
		c-0.9,0-1.7-0.8-1.7-1.7s0.7-1.7,1.7-1.7c0.2,0,0.5,0.1,0.7,0.2C-384.8,202.4-384.1,201.9-383.2,201.9 M-383.2,201.2
		c-0.9,0-1.7,0.4-2.1,1.2c-0.1,0-0.2,0-0.4,0c-1.3,0-2.3,1-2.3,2.3s1,2.3,2.3,2.3h5c1,0,1.7-0.8,1.7-1.8s-0.7-1.7-1.7-1.8
		C-380.9,202.2-381.9,201.2-383.2,201.2z"/>
	<path class="st2" d="M-378.9,204.8c0.5-0.4,0.9-1.1,0.9-1.9c0-1.4-1.1-2.5-2.5-2.5c-0.8,0-1.6,0.4-2,1"/>
</g>
</svg>
