<svg width="24" height="24" xmlns="http://www.w3.org/2000/svg">
    <path
    fill="#037fff"
    d="M12.245 18.245a.552.552 0 0 1-.295.49l-4.4 2.474c-.09.067-.201.1-.318.1a.526.526 0 0 1-.318-.1l-4.4-2.474a.552.552 0 0 1-.296-.49v-5.013c0-.212.117-.396.296-.49l4.4-2.474c.09-.067.201-.1.318-.1.117 0 .228.033.317.1l4.401 2.474a.552.552 0 0 1 .295.49v5.013m-5.013-6.88-3.32 1.867 3.32 1.866 3.32-1.866-3.32-1.866m-3.9 6.55L6.676 19.8v-3.737l-3.342-1.878v3.733m7.798 0v-3.733L7.79 16.062v3.737z"
  />
    <path
    fill="#ff2a2a"
    d="M21.2 18.282a.552.552 0 0 1-.295.49l-4.401 2.473c-.09.067-.2.1-.318.1a.526.526 0 0 1-.317-.1l-4.4-2.473a.552.552 0 0 1-.296-.49v-5.013c0-.212.117-.396.295-.49l4.4-2.474c.09-.067.201-.1.318-.1.117 0 .229.033.318.1l4.4 2.473a.552.552 0 0 1 .296.49v5.014m-5.014-6.88-3.32 1.867 3.32 1.866 3.32-1.866-3.32-1.867m-3.899 6.551 3.342 1.883v-3.738l-3.342-1.877v3.732m7.799 0v-3.732l-3.342 1.877v3.738z"
    style="stroke-width:.557051"
  />
  <path
  fill="#4bc94e"
  d="M16.754 10.764a.552.552 0 0 1-.295.49l-4.4 2.473c-.09.067-.201.1-.318.1a.526.526 0 0 1-.318-.1l-4.4-2.473a.552.552 0 0 1-.296-.49V5.75c0-.211.117-.395.296-.49l4.4-2.473c.09-.067.2-.1.318-.1.117 0 .228.033.317.1L16.46 5.26a.552.552 0 0 1 .295.49v5.014m-5.013-6.88L8.42 5.75l3.32 1.866 3.32-1.866-3.32-1.866m-3.9 6.551 3.343 1.883V8.58L7.84 6.703v3.732m7.8 0V6.703L12.297 8.58v3.738z"
  style="stroke-width:.557051"
/></svg>
